<?xml version="1.0" encoding="UTF-8"?>
<svg version="1.1" xmlns="http://www.w3.org/2000/svg" width="16" height="16">
<path d="M0 0 C5.28 0 10.56 0 16 0 C16 5.28 16 10.56 16 16 C10.72 16 5.44 16 0 16 C0 10.72 0 5.44 0 0 Z " fill="#0DA7EE" transform="translate(0,0)"/>
<path d="M0 0 C0 2.97 0 5.94 0 9 C-3.3 8.67 -6.6 8.34 -10 8 C-10 5.69 -10 3.38 -10 1 C-6.78548731 -0.60725635 -3.56387464 -0.05748185 0 0 Z " fill="#98DDF0" transform="translate(13,5)"/>
<path d="M0 0 C0.33 0 0.66 0 1 0 C1 3.3 1 6.6 1 10 C1.66 10.33 2.32 10.66 3 11 C-2.28 11 -7.56 11 -13 11 C-12.34 10.34 -11.68 9.68 -11 9 C-10.75787127 7.01871492 -10.75787127 7.01871492 -10.875 4.875 C-10.936875 2.956875 -10.936875 2.956875 -11 1 C-10.67 1 -10.34 1 -10 1 C-10 3.31 -10 5.62 -10 8 C-6.7 8.33 -3.4 8.66 0 9 C0 6.03 0 3.06 0 0 Z " fill="#32A9E6" transform="translate(13,5)"/>
<path d="M0 0 C0.66 0.66 1.32 1.32 2 2 C2.66 2 3.32 2 4 2 C4 2.99 4 3.98 4 5 C3.01 5 2.02 5 1 5 C1.33 7.97 1.66 10.94 2 14 C1.01 14 0.02 14 -1 14 C-1.02685938 11.85423363 -1.04633088 9.70837355 -1.0625 7.5625 C-1.07410156 6.36753906 -1.08570312 5.17257812 -1.09765625 3.94140625 C-1 1 -1 1 0 0 Z " fill="#0F9DE4" transform="translate(1,1)"/>
<path d="M0 0 C0.66 0.33 1.32 0.66 2 1 C2 5.29 2 9.58 2 14 C1.34 14 0.68 14 0 14 C-0.03738281 13.30132812 -0.07476562 12.60265625 -0.11328125 11.8828125 C-0.17902344 10.97273437 -0.24476562 10.06265625 -0.3125 9.125 C-0.37050781 8.22007813 -0.42851562 7.31515625 -0.48828125 6.3828125 C-0.7882039 3.63778399 -0.7882039 3.63778399 -4 2 C-2.68 2 -1.36 2 0 2 C0 1.34 0 0.68 0 0 Z " fill="#0C9EE5" transform="translate(14,1)"/>
<path d="M0 0 C1.65 0 3.3 0 5 0 C5 2.64 5 5.28 5 8 C3.68 7.67 2.36 7.34 1 7 C1.020625 6.21625 1.04125 5.4325 1.0625 4.625 C1.18684063 2.01885039 1.18684063 2.01885039 0 0 Z " fill="#E8FDFE" transform="translate(8,5)"/>
<path d="M0 0 C2.475 0.495 2.475 0.495 5 1 C5 1.66 5 2.32 5 3 C5.99 3.33 6.98 3.66 8 4 C5.36 4 2.72 4 0 4 C0 2.68 0 1.36 0 0 Z " fill="#4DBAEC" transform="translate(5,1)"/>
</svg>
